<?xml version="1.0" encoding="utf-8"?>
<!-- Generator: Adobe Illustrator 22.0.1, SVG Export Plug-In . SVG Version: 6.00 Build 0)  -->
<svg version="1.1" id="图层_1" xmlns="http://www.w3.org/2000/svg" xmlns:xlink="http://www.w3.org/1999/xlink" x="0px" y="0px"
	 viewBox="0 0 20 20" style="enable-background:new 0 0 20 20;" xml:space="preserve">
<g>
	<path d="M5.8,11.5c0-0.2-0.2-0.3-0.3-0.2c-0.2,0-0.3,0.2-0.2,0.3c0,0.3,0.1,0.6,0,0.9c-0.1,0.3-0.2,0.5-0.4,0.7
		c-0.2,0.1-0.3,0.1-0.5,0c-0.2-0.1-0.3-0.3-0.3-0.5c0-0.2,0.1-0.4,0.2-0.6l0.5-1.6c0-0.1,0-0.3-0.1-0.3c-0.1-0.1-0.3,0-0.4,0.1
		c-0.2,0.2-0.7,0.7-1,0.8c-0.4,0.1-0.9,0.1-1.3,0c-0.2-0.1-0.4-0.2-0.6-0.5c-0.2-0.3-0.2-0.7-0.1-1C1.5,9,1.8,8.7,2.2,8.5
		C3,8.2,4,8.7,4.6,9.3c0.1,0.1,0.3,0.1,0.4,0C5.1,9.1,5.1,9,5,8.8C4.3,8.2,3.1,7.6,2,8C1.5,8.2,1,8.7,0.8,9.3
		c-0.2,0.5-0.1,1.1,0.2,1.5c0.2,0.3,0.5,0.5,0.9,0.7c0.5,0.2,1.1,0.2,1.7,0.1c0.1,0,0.3-0.1,0.4-0.2l-0.2,0.5
		c-0.1,0.2-0.2,0.5-0.2,0.8c0,0.4,0.2,0.8,0.5,1c0,0,0,0,0,0c0.3,0.2,0.7,0.2,1.1,0c0.3-0.2,0.6-0.6,0.7-1
		C5.9,12.2,5.9,11.9,5.8,11.5z"/>
	<path d="M19.2,9.1C19,8.5,18.5,8.1,18,7.9c-1.1-0.4-2.3,0.2-2.9,0.9c-0.1,0.1-0.1,0.3,0,0.4c0.1,0.1,0.3,0.1,0.4,0
		c0.5-0.6,1.5-1,2.4-0.7c0.4,0.1,0.7,0.5,0.9,0.9c0.1,0.4,0.1,0.7-0.1,1c-0.1,0.2-0.3,0.4-0.6,0.5c-0.4,0.2-0.9,0.2-1.3,0.1
		c-0.3-0.1-0.8-0.6-1-0.8c-0.1-0.1-0.2-0.1-0.4-0.1c-0.1,0.1-0.2,0.2-0.1,0.3l0.5,1.6c0.1,0.2,0.1,0.4,0.2,0.6
		c0,0.2-0.1,0.4-0.3,0.5c-0.1,0.1-0.3,0.1-0.5,0c-0.2-0.1-0.3-0.4-0.4-0.6c-0.1-0.3,0-0.6,0-0.9c0-0.2-0.1-0.3-0.2-0.3
		c-0.2,0-0.3,0.1-0.3,0.2c0,0.4-0.1,0.7,0,1.1c0.1,0.4,0.3,0.8,0.6,1c0,0,0,0,0,0c0.4,0.2,0.7,0.2,1.1,0c0.4-0.2,0.6-0.6,0.5-1.1
		c0-0.3-0.1-0.5-0.2-0.8l-0.2-0.5c0.1,0.1,0.3,0.2,0.4,0.2c0.5,0.2,1.2,0.2,1.7-0.1c0.4-0.2,0.7-0.4,0.9-0.7
		C19.3,10.2,19.4,9.6,19.2,9.1z"/>
	<path d="M7.9,13.4c0.1,0.2,0.2,0.3,0.3,0.5l3.7,0c0.1-0.1,0.2-0.3,0.3-0.5L7.9,13.4z"/>
	<path d="M10,10.8L10,10.8c-1.9,0-2.2,0.6-2.2,1.4l4.5,0C12.2,11.3,11.9,10.8,10,10.8z"/>
	<path d="M12.3,12.8c0-0.1,0-0.2,0-0.3c0,0,0,0,0,0l-4.5,0c0,0,0,0,0,0c0,0.1,0,0.2,0,0.3c0,0.1,0,0.1,0,0.2l4.5,0
		C12.3,12.9,12.3,12.9,12.3,12.8z"/>
	<path d="M10,14.9L10,14.9c0.4,0,1-0.3,1.5-0.6l-2.9,0C9,14.6,9.6,14.9,10,14.9z"/>
	<path d="M11.9,6c0.2-0.5,0.6-0.9,1.1-1.2c0.3-0.1,0.6-0.2,0.9-0.3c0.3,0,0.5,0,0.8,0c0,0,0,0,0,0.1c0,0.1,0.1,0.3,0.3,0.3
		c0.1,0,0.3-0.1,0.3-0.3c0-0.1-0.1-0.3-0.3-0.3c-0.1,0-0.2,0.1-0.2,0.2c-0.3-0.1-0.6-0.2-0.9-0.1c-0.3,0-0.6,0.1-0.9,0.3
		c-0.3,0.2-0.5,0.4-0.7,0.6C12.1,5.6,12,5.8,11.9,6c-0.6-0.3-1.3-0.5-2-0.5c-0.7,0-1.4,0.2-2,0.5C7.9,5.8,7.8,5.6,7.6,5.4
		C7.4,5.1,7.2,4.9,6.9,4.7C6.6,4.6,6.3,4.4,6,4.4c-0.3,0-0.6,0-0.8,0.2c0-0.1-0.1-0.2-0.2-0.2c-0.1,0-0.2,0.1-0.2,0.2
		c0,0.1,0.1,0.2,0.2,0.2c0.1,0,0.2-0.1,0.2-0.2c0,0,0,0,0,0c0.3,0,0.5,0,0.8,0c0.3,0,0.6,0.1,0.9,0.2C7.3,5.1,7.7,5.6,8,6.1
		C6.6,6.8,5.6,8.3,5.6,10l8.8-0.1C14.4,8.2,13.4,6.7,11.9,6z M8.3,8.5C8.1,8.5,7.8,8.3,7.8,8c0-0.3,0.2-0.5,0.5-0.5
		c0.3,0,0.5,0.2,0.5,0.5C8.8,8.3,8.6,8.5,8.3,8.5z M10,9.3c-0.1,0-0.1,0-0.2-0.1c0,0,0,0-0.1,0C9.7,9.1,9.6,9.1,9.6,9
		c0-0.1,0-0.1,0.1-0.1c0.1,0,0.1,0,0.1,0.1c0,0,0,0.1,0.1,0.1c0,0,0.1,0,0.1,0c0,0,0.1,0,0.1,0c0,0,0-0.1,0-0.1c0-0.1,0-0.1,0.1-0.1
		c0.1,0,0.1,0,0.1,0.1c0,0.1,0,0.2-0.1,0.2C10.2,9.3,10.1,9.3,10,9.3z M11.6,8.5c-0.3,0-0.5-0.2-0.5-0.5c0-0.3,0.2-0.5,0.5-0.5
		c0.3,0,0.5,0.2,0.5,0.5C12.1,8.3,11.9,8.5,11.6,8.5z"/>
</g>
</svg>
